<svg xmlns="http://www.w3.org/2000/svg" xmlns:xlink="http://www.w3.org/1999/xlink" width="273.334" height="298.748" viewBox="0 0 273.334 298.748">
  <defs>
    <linearGradient id="linear-gradient" x1="0.833" y1="0.045" x2="0.268" y2="0.818" gradientUnits="objectBoundingBox">
      <stop offset="0" stop-color="#565fad"/>
      <stop offset="1" stop-color="#2b3057"/>
    </linearGradient>
    <clipPath id="clip-path">
      <path id="Path_63" data-name="Path 63" d="M294.841-19.664c57.544,36.982,57.544,250.405,0,284.564S64.665,188.111,64.665,116.97,237.3-56.646,294.841-19.664Z" transform="translate(4.667 140.168)" stroke="#f7f7f8" stroke-width="3" fill="url(#linear-gradient)"/>
    </clipPath>
  </defs>
  <g id="Mask_Group_1" data-name="Mask Group 1" transform="translate(-69.333 -112.693)" clip-path="url(#clip-path)">
    <g id="svga-group-wrapper" transform="translate(56.25 77.215)">
      <g id="svga-group-humanwrap-move" transform="translate(55.003 57.223)">
        <g id="svga-group-humanwrap" transform="translate(0 0)">
          <g id="svga-group-humanbody-back" transform="translate(5.534 121.118)">
            <path id="SvgjsPath10384" d="M233.479,262.288c-15.132-9.162-38.315-11.661-48.588-16.8-6.8-3.471-12.633-6.525-12.355-24.711s2.638-58.861,2.638-58.861H107.011s2.221,40.814,2.638,58.861-5.831,21.656-12.355,24.711c-10.273,4.859-33.456,7.5-48.588,16.8-14.993,9.162-13.882,26.238-13.882,26.238v27.348H247.639V288.525c-.139,0,.972-17.075-14.16-26.238Z" transform="translate(-34.805 -161.919)" fill="#f0c7b1"/>
          </g>
          <g id="svga-group-chinshadow-single" transform="translate(77.741 121.574)">
            <path id="SvgjsPath10620" d="M180.374,162.068H112.212c.139,2.5,2.221,41.23,2.638,58.722a59.723,59.723,0,0,1-.416,9.162c16.52,14.16,31.929,12.494,31.929,12.494s15.409,1.666,31.929-12.355a57.8,57.8,0,0,1-.555-9.162C178.014,203.159,180.235,164.566,180.374,162.068Z" transform="translate(-112.212 -162.068)" fill="#d19271" opacity="0.65"/>
          </g>
          <g id="svga-group-humanbody-front" transform="translate(3.748 119.175)">
            <path id="SvgjsPath10385" d="M117.122,233.247a99.693,99.693,0,0,0,4.3,19.3c1.111,3.193,2.221,6.386,3.609,9.579a30.822,30.822,0,0,0,4.3,8.191c.416.555,1.388,0,1.249-.694-.694-3.054-2.221-5.969-3.332-8.885-1.249-3.054-2.36-6.108-3.471-9.162-2.082-6.108-3.887-12.355-5.692-18.463C117.816,232.553,116.983,232.692,117.122,233.247Zm57.334-1.388c-1.8,11.383-5.414,22.351-7.5,33.6-.139.555.555.694.833.278,4.3-10.689,5.692-22.351,7.08-33.734-.139-.278-.416-.278-.416-.139Zm-35.816,16.52c-1.249,5,2.638,11.939,8.607,10.551.694-.139.555-1.111,0-1.388-1.944-.694-4.026-1.249-5.414-2.915a8.456,8.456,0,0,1-1.944-6.247c0-.555-1.111-.694-1.249,0Z" transform="translate(-38.548 -164.668)" fill="#d19271"/>
            <path id="SvgjsPath10386" d="M248.343,315.734c-.139-9.162-.417-18.186-.417-27.348l-.416-.417c.139,0,.139,0,.278.139s.139.278.139.139V286.3c0-.694-.139-1.249-.139-1.944a38.057,38.057,0,0,0-.694-3.887,36.364,36.364,0,0,0-2.776-7.358,26.925,26.925,0,0,0-10.689-11.245,75.7,75.7,0,0,0-16.1-7.08c-5.553-1.8-11.245-3.332-16.8-4.859-5.553-1.666-11.245-3.054-16.381-5.831a20.508,20.508,0,0,1-6.664-5,18.66,18.66,0,0,1-3.193-7.635c-1.111-5.553-.555-11.383-.416-17.214l.972-17.492,2.082-34.983.139-1.944h-1.944c-11.383,0-22.767,0-34.15.139l-34.15.416h-1.249l.139,1.249c1.111,16.52,2.221,33.04,2.915,49.56.139,4.165.416,8.329.278,12.355s-.555,8.191-2.221,11.939a16.813,16.813,0,0,1-3.332,4.859,17.481,17.481,0,0,1-5,3.332,63.134,63.134,0,0,1-11.522,4.165c-8.052,2.082-16.1,3.887-24.016,6.525a75.975,75.975,0,0,0-11.661,4.72,39.188,39.188,0,0,0-5.553,3.332,28.412,28.412,0,0,0-4.859,4.3,29.99,29.99,0,0,0-6.247,11.245,32.7,32.7,0,0,0-1.388,6.386,26.75,26.75,0,0,0-.139,3.332v3.193l-.278,24.849v1.8h1.944L88,317.816c17.769.139,35.4.139,53.169,0s35.539-.139,53.169-.416c17.769-.278,35.539-.694,53.169-.972h.833v-.694Zm-107.171-2.221H88l-51.365.278L36.5,290.745v-3.054a20.5,20.5,0,0,1,.139-2.915,28.778,28.778,0,0,1,1.111-5.831,29.871,29.871,0,0,1,5.414-10.412,23.531,23.531,0,0,1,4.3-4.026,31.954,31.954,0,0,1,5.136-3.193,80.808,80.808,0,0,1,11.245-4.859c7.774-2.776,15.826-4.72,23.739-7.08a60.081,60.081,0,0,0,11.8-4.3,22.254,22.254,0,0,0,5.275-3.609,16.1,16.1,0,0,0,3.609-5.414,34.672,34.672,0,0,0,2.221-12.355c0-4.165-.139-8.329-.278-12.494l-1.8-48.31,32.623.555c10.689.139,21.379.139,32.068.139-.555,10.967-1.111,22.073-1.527,33.04-.278,5.831-.278,11.661-.416,17.492,0,5.831-.278,11.8,1.111,17.769a19.9,19.9,0,0,0,3.887,8.329,21.147,21.147,0,0,0,7.358,5.275c5.414,2.638,11.106,3.887,16.8,5.275s11.383,2.776,16.936,4.581a74.142,74.142,0,0,1,15.965,6.941,27.654,27.654,0,0,1,10.412,11.106,26.491,26.491,0,0,1,2.638,7.219,17.477,17.477,0,0,1,.555,3.748,9.165,9.165,0,0,1,.139,1.943v2.082l-.416,26.376c-17.492-.278-34.845-.694-52.336-.972-17.631-.139-35.4-.139-53.03-.278Z" transform="translate(-32.89 -159.835)" fill="#c27b55"/>
          </g>
          <g id="svga-group-clothes-single" transform="translate(0 198.837)">
            <path id="SvgjsPath10272" d="M250.96,322.1c0-24.294-2.221-37.066-2.221-37.066-4.165-19.435-30.4-25.266-42.619-27.9-21.1-4.165-27.9-10-27.9-10s-8.885,22.212-38.176,22.212-37.2-23.045-37.2-23.045-7.358,5.692-29.43,9.856c-12.078,2.638-36.51,9.579-40.675,29.014,0,0-2.221,12.772-2.221,37.066H250.96Z" transform="translate(-28.982 -245.307)" fill="#1e78a2"/>
            <path id="SvgjsPath10273" d="M251.266,306.9c-.139-5-.278-10.134-.694-15.132l-.416-3.748c-.139-1.249-.278-2.5-.555-3.887a23.98,23.98,0,0,0-2.915-7.358c-2.638-4.581-6.8-8.191-11.106-10.967a67.633,67.633,0,0,0-14.021-6.525,144.938,144.938,0,0,0-14.715-4.026,129.676,129.676,0,0,1-14.438-3.748c-2.36-.833-4.581-1.666-6.8-2.638-1.111-.555-2.221-.972-3.332-1.527a15.145,15.145,0,0,1-1.527-.833,7.352,7.352,0,0,0-1.388-.833c-.139-.139-.278-.139-.416-.278a1.883,1.883,0,0,0-2.5.972,40.233,40.233,0,0,1-2.638,4.72,52.228,52.228,0,0,1-3.471,4.3,41.934,41.934,0,0,1-8.607,6.941,44.469,44.469,0,0,1-21.518,5.692c-7.5.139-15.271-1.388-21.8-5.275a36.342,36.342,0,0,1-14.854-16.8.136.136,0,0,0-.139-.139.686.686,0,0,0-.972-.139,28.932,28.932,0,0,1-6.525,3.332,71.814,71.814,0,0,1-7.08,2.5,139.553,139.553,0,0,1-14.576,3.609c-9.856,2.082-19.852,4.859-28.6,10.551A33.134,33.134,0,0,0,34.7,276.632a26.565,26.565,0,0,0-3.054,7.358c-.139.278-.139.694-.278.972l-.139.972-.278,1.943-.416,3.748c-1.111,10.134-1.527,20.268-1.666,30.4a1.965,1.965,0,0,0,1.8,1.943l55.529.278c18.463,0,37.066-.139,55.39-.278l55.252-.416,51.226-.833,3.054-.555c.139-5.275.139-10.134.139-15.271Zm-28.459,14.438-27.765-.416-55.113-.694c-18.325-.139-36.51-.278-54.7-.278l-52.753.278c0-9.44.139-18.88.972-28.181l.416-3.748.139-1.8.139-.972c0-.278.139-.555.139-.833a29.792,29.792,0,0,1,2.5-6.663,32.5,32.5,0,0,1,9.856-10.551,65.852,65.852,0,0,1,13.188-6.8A82.359,82.359,0,0,1,74.267,256.5a134.39,134.39,0,0,0,14.715-3.748c2.36-.833,4.859-1.666,7.219-2.638a43.135,43.135,0,0,0,6.247-3.054,41.2,41.2,0,0,0,5.831,9.44,34.759,34.759,0,0,0,9.023,7.774c6.8,4.3,14.854,6.108,22.767,6.247a46.614,46.614,0,0,0,23.183-5.275,38.289,38.289,0,0,0,9.579-7.358,37.865,37.865,0,0,0,5.969-8.052c.555.278,1.111.694,1.666.972,1.111.555,2.36,1.249,3.471,1.666a64.6,64.6,0,0,0,7.219,2.776A136.785,136.785,0,0,0,206.01,259c9.718,1.944,19.435,4.581,27.9,9.579a32.188,32.188,0,0,1,10.551,9.718,27.561,27.561,0,0,1,2.915,6.525,28.09,28.09,0,0,1,.555,3.609l.417,3.748c.555,5,1.111,10,1.388,14.993s.555,10.134.833,14.993l-27.765-.833Zm-167.7-43.174A79.369,79.369,0,0,1,59.551,291.9c.555,2.36,1.111,4.72,1.527,7.08s.833,4.72,1.249,7.219c.694,4.442,1.388,8.885,1.944,13.327h.278a111.2,111.2,0,0,0,0-13.6,107.688,107.688,0,0,0-2.221-14.715,70.581,70.581,0,0,0-2.082-7.219,37.633,37.633,0,0,0-3.054-6.8,30.614,30.614,0,0,0-4.165-6.247,32.555,32.555,0,0,0-4.442-4.3c-.139,0-.139.139-.278.139a40.01,40.01,0,0,1,3.609,4.859C53.027,273.717,54.137,275.938,55.109,278.159Zm164.228,27.9c.416-2.36.833-4.859,1.249-7.219a64.479,64.479,0,0,1,1.527-7.08,79.371,79.371,0,0,1,4.442-13.743,55.773,55.773,0,0,1,3.332-6.386,34.986,34.986,0,0,1,3.332-4.581c-.139-.139-.278-.139-.278-.278a22.8,22.8,0,0,0-4.165,4.026,48.867,48.867,0,0,0-4.165,6.247,42.511,42.511,0,0,0-3.054,6.8,61.689,61.689,0,0,0-2.082,7.219,98.873,98.873,0,0,0-2.221,29.431c.694-4.859,1.388-9.579,2.082-14.438Zm-56.362-34.428c-7.219,4.026-15.687,5.414-24.016,4.859-2.082-.139-4.165-.278-6.247-.555a47.687,47.687,0,0,1-6.108-1.249,48.9,48.9,0,0,1-5.831-2.082,40.677,40.677,0,0,1-5.414-2.915,43.156,43.156,0,0,1-9.3-8.052A45.293,45.293,0,0,1,99.116,251.5a41.629,41.629,0,0,0,15.132,19.852,39.591,39.591,0,0,0,11.661,5.692,52.53,52.53,0,0,0,6.386,1.388,51.717,51.717,0,0,0,6.525.555,51.742,51.742,0,0,0,13.049-.972,42.123,42.123,0,0,0,12.216-4.72,47.1,47.1,0,0,0,10-8.052,65.57,65.57,0,0,0,7.774-9.856C176.3,261.639,170.332,267.608,162.975,271.634Z" transform="translate(-28.872 -245.236)" fill="#005a83"/>
          </g>
          <g id="svga-group-head" transform="translate(40.695)">
            <g id="svga-group-ears-left-move" transform="translate(0 87.1)">
              <g id="svga-group-ears-left">
                <path id="SvgjsPath10829" d="M90.964,137.393a83.053,83.053,0,0,0-8.191-9.3c-3.609-3.332-4.72-3.332-6.386-1.249-1.8,2.082-4.026,12.633-3.471,17.214.555,4.72,5,12.078,7.219,16.242,2.36,4.165,4.581,9.3,7.08,8.746,2.638-.555,6.108-6.386,7.913-10.689s.694-14.993-4.165-20.962Z" transform="translate(-72.52 -124.621)" fill="#f0c7b1"/>
                <path id="SvgjsPath10830" d="M96.217,149.969a31.585,31.585,0,0,1,.278,3.609,15.831,15.831,0,0,1-.278,3.609c-.139.555-.278,1.249-.416,1.8s-.416.972-.555,1.527a27.746,27.746,0,0,1-1.388,2.915,18.383,18.383,0,0,1-3.609,5,8.241,8.241,0,0,1-2.5,1.8,3.962,3.962,0,0,1-1.8,0,6.164,6.164,0,0,1-1.527-1.111,26.917,26.917,0,0,1-3.748-5.969c-.972-2.082-2.082-4.026-3.054-5.969-.972-2.082-2.082-4.026-2.915-6.108a30.334,30.334,0,0,1-1.249-3.193,14.1,14.1,0,0,1-.833-3.471,38.4,38.4,0,0,1,.139-6.941c.278-2.221.694-4.442,1.111-6.664a12.431,12.431,0,0,1,1.111-3.193l.416-.833a3.029,3.029,0,0,1,.555-.694,3.552,3.552,0,0,1,2.915-1.527,5.132,5.132,0,0,1,1.527.694,18.074,18.074,0,0,1,2.5,2.082c3.054,3.054,5.553,6.664,8.191,10a27.094,27.094,0,0,1,5.136,12.633ZM82.2,128.313c-1.527-1.249-3.332-2.638-4.3-1.666-.278.139-.555.555-.833.833l-.416.416c-.139.139-.139.416-.278.555-.416.833-.694,1.8-1.111,2.776a29.378,29.378,0,0,0-1.527,6.247A25.4,25.4,0,0,0,73.172,144a12.005,12.005,0,0,0,.833,3.193c.416,1.111.833,2.082,1.249,3.054.972,2.082,2.082,3.887,3.193,5.831s2.36,3.748,3.471,5.692c.555.972,1.111,1.944,1.666,2.776a10.588,10.588,0,0,0,1.8,2.36c.694.555,1.249.833,1.8.555a6.242,6.242,0,0,0,1.944-1.527,23.435,23.435,0,0,0,3.193-4.72,24.123,24.123,0,0,0,1.388-2.638,5.8,5.8,0,0,0,.555-1.388l.278-.694c0-.278.139-.416.139-.694a23.946,23.946,0,0,0,.416-6.386,28.171,28.171,0,0,0-1.249-6.663A16.708,16.708,0,0,0,90.8,136.92a100.71,100.71,0,0,0-8.607-8.607Z" transform="translate(-72.498 -124.564)" fill="#e1ac8f"/>
                <path id="SvgjsPath10831" d="M76.175,146.914c-.416-3.193-.694-10.828,1.111-13.327,3.054-4.026,8.329,8.885,9.579,12.911,0,.139.139.278.139.416a.543.543,0,0,1-.555.833c-.555-.278-1.249-.833-1.8-1.111-1.527-.694-2.221.694-1.8,2.5.555,2.5,1.944,4.026,3.054,5.969.139.278,0,.555-.278.416-2.221-1.249-4.859-6.247-4.3-9.162.416-2.776,2.638-2.5,4.3-1.111a37.9,37.9,0,0,0-3.471-6.664c-.833-1.249-1.666-2.776-3.054-3.054-1.666-.278-1.388.416-1.666,2.5-1.111,6.663-.416,14.438,3.471,20.129.139.139,0,.278-.139.139a20.926,20.926,0,0,1-4.581-11.383Z" transform="translate(-72.724 -125.119)" fill="#d19271"/>
              </g>
            </g>
            <g id="svga-group-ears-right-move" transform="translate(118.535 87.063)">
              <g id="svga-group-ears-right">
                <path id="SvgjsPath10832" d="M205.016,137.393a83.053,83.053,0,0,1,8.191-9.3c3.609-3.332,4.72-3.332,6.386-1.249,1.8,2.082,4.026,12.633,3.471,17.214s-5,12.078-7.219,16.242c-2.36,4.165-4.581,9.3-7.08,8.746-2.638-.555-6.108-6.386-7.913-10.689s-.694-14.993,4.165-20.962Z" transform="translate(-199.602 -124.584)" fill="#f0c7b1"/>
                <path id="SvgjsPath10833" d="M204.985,137.333c2.638-3.332,5.275-6.941,8.191-10a12.445,12.445,0,0,1,2.5-2.082,5.132,5.132,0,0,1,1.527-.694,2.327,2.327,0,0,1,1.666.416,8.981,8.981,0,0,1,1.249,1.111c.139.139.278.416.555.694l.416.833a21.583,21.583,0,0,1,1.111,3.193,37.108,37.108,0,0,1,1.111,6.664,28.894,28.894,0,0,1,.139,6.941,25.388,25.388,0,0,1-.833,3.471c-.416,1.111-.833,2.221-1.249,3.193-.972,2.082-1.944,4.165-2.915,6.108-1.111,2.082-2.082,4.026-3.054,5.969-1.111,1.944-1.944,4.165-3.748,5.969a6.164,6.164,0,0,1-1.527,1.111,2.059,2.059,0,0,1-1.8,0,6.83,6.83,0,0,1-2.5-1.8,32.752,32.752,0,0,1-3.609-5,27.755,27.755,0,0,1-1.388-2.915,6.766,6.766,0,0,1-.555-1.527,6.887,6.887,0,0,1-.416-1.8,23.6,23.6,0,0,1,0-7.219,24.493,24.493,0,0,1,5.136-12.633Zm.139.139a18.021,18.021,0,0,0-3.054,5.831,28.169,28.169,0,0,0-1.249,6.664,23.946,23.946,0,0,0,.416,6.386c0,.278.139.416.139.694l.278.694c.139.416.416.972.555,1.388a15.826,15.826,0,0,0,1.388,2.638,40.042,40.042,0,0,0,3.193,4.72,5,5,0,0,0,1.944,1.527c.555.278,1.111,0,1.8-.555a8.137,8.137,0,0,0,1.8-2.36c.555-.833,1.111-1.8,1.666-2.776,1.111-1.944,2.36-3.887,3.471-5.692,1.111-1.944,2.221-3.887,3.193-5.831a14.164,14.164,0,0,0,1.249-3.054,15.548,15.548,0,0,0,.833-3.193,25.4,25.4,0,0,0-.555-6.525c-.416-2.082-.972-4.165-1.527-6.247A16.545,16.545,0,0,0,219.561,129c-.139-.139-.139-.416-.278-.555s-.139-.278-.416-.416c-.278-.278-.555-.694-.833-.833-.972-.833-2.776.555-4.3,1.666A38.871,38.871,0,0,0,205.124,137.472Z" transform="translate(-199.571 -124.525)" fill="#e1ac8f"/>
                <path id="SvgjsPath10834" d="M220.661,146.914c.416-3.193.694-10.828-1.111-13.327-3.054-4.026-8.329,8.885-9.579,12.911,0,.139-.139.278-.139.416a.543.543,0,0,0,.555.833c.555-.278,1.249-.833,1.8-1.111,1.527-.694,2.221.694,1.8,2.5-.555,2.5-1.944,4.026-3.054,5.969-.139.278,0,.555.278.416,2.221-1.249,4.859-6.247,4.3-9.162-.416-2.776-2.638-2.5-4.3-1.111a37.9,37.9,0,0,1,3.471-6.664c.833-1.249,1.666-2.776,3.054-3.054,1.666-.278,1.388.416,1.666,2.5,1.111,6.663.416,14.438-3.471,20.129-.139.139,0,.278.139.139a20.926,20.926,0,0,0,4.581-11.383Z" transform="translate(-200.254 -125.082)" fill="#d19271"/>
              </g>
            </g>
            <g id="svga-group-faceshape-wrap" transform="translate(11.363 19.909)">
              <g id="svga-group-faceshape-single">
                <path id="SvgjsPath10608" d="M204.484,117.365v-.416c-1.8-41.508-28.736-64.414-59.972-64.414S86.346,75.44,84.68,116.948v.416c0,4.165,0,41.925,7.913,58.167,20.962,43.174,51.92,41.369,51.92,41.369s30.958,1.944,52.059-41.369c7.913-16.242,7.913-54,7.913-58.167Z" transform="translate(-84.68 -52.534)" fill="#f0c7b1"/>
                <path id="SvgjsPath10609" d="M196.571,175.532c7.913-16.242,7.913-54,7.913-58.167v-.416c-1.8-41.508-28.736-64.414-59.972-64.414S86.346,75.44,84.68,116.948v.416c0,4.165,0,41.925,7.913,58.167,20.962,43.174,51.92,41.369,51.92,41.369s30.958,1.944,52.059-41.369Zm-69.134,33.456c-5.831-2.36-11.8-7.635-16.381-12.216l-3.332-3.471-3.054-3.887a42.512,42.512,0,0,1-2.915-4.026c-.833-1.388-1.8-2.638-2.776-4.165l-2.36-4.3a31.721,31.721,0,0,1-2.221-4.3,59.251,59.251,0,0,1-3.193-9.162A154.158,154.158,0,0,1,87.6,143.741c-.833-6.663-1.388-13.466-1.666-20.129a80.032,80.032,0,0,1,0-10c.139-1.666.139-3.332.416-5l.833-5,.139-1.249.278-1.249.694-2.36.694-2.36a15.97,15.97,0,0,1,.833-2.36c.555-1.527,1.111-3.193,1.8-4.72l2.221-4.442a57.6,57.6,0,0,1,12.216-15.409,52.262,52.262,0,0,1,16.659-10,63.546,63.546,0,0,1,38.038-1.666,57.1,57.1,0,0,1,31.374,21.8l2.776,4.165c.833,1.388,1.527,2.915,2.36,4.442s1.388,3.054,2.082,4.581a47.181,47.181,0,0,1,1.666,4.72l1.388,4.859c.278,1.666.694,3.332.972,5l.416,2.5.278,2.638c.139,2.082.278,5.275.278,7.358a189.943,189.943,0,0,1-2.5,29.43,119.674,119.674,0,0,1-3.471,15.548c-.416,1.249-.694,2.5-1.249,3.748s-.833,2.5-1.388,3.609c-.972,2.221-2.5,4.442-3.748,6.8-.694,1.111-1.249,2.221-2.082,3.332l-2.221,3.193c-.833,1.111-1.388,2.221-2.221,3.193l-2.5,2.915c-1.527,2.082-3.471,3.748-5.136,5.692a47.762,47.762,0,0,1-5.692,4.859A78.984,78.984,0,0,1,162,208.433a33.74,33.74,0,0,1-5.136,2.221c-5.969,2.36-12.633,5.136-29.43-1.666Z" transform="translate(-84.68 -52.534)" fill="#c27b55"/>
              </g>
            </g>
            <g id="svga-group-mouth-single-move" transform="translate(48.811 141.755)">
              <g id="svga-group-mouth-single">
                <path id="SvgjsPath10469" d="M125.2,180.641a14.006,14.006,0,0,0,1.541,6.053,100.524,100.524,0,0,0,13.743,11.661c.264.194,11.439,1.61,14.382.569,0,0,11.606-7.2,14.146-12.661a11.236,11.236,0,0,0,.569-4.54s-8.8,2.443-12.952,3.054-14.743,0-20-.791a44.661,44.661,0,0,1-11.425-3.346Z" transform="translate(-124.851 -180.211)"/>
                <path id="SvgjsPath10470" d="M156.605,184.763c-4.151.625-14.743,0-20-.791a44.694,44.694,0,0,1-11.411-3.346,14.006,14.006,0,0,0,1.541,6.053l.264.264a27.475,27.475,0,0,0,8.607,4.151c7.011,1.888,21.059,2.638,30.735-2.665.805-.444,1.513-.875,2.18-1.319a5.511,5.511,0,0,0,.472-.888,11.236,11.236,0,0,0,.569-4.54c.014.028-8.8,2.485-12.952,3.082Z" transform="translate(-124.85 -180.21)" fill="#fff"/>
                <path id="SvgjsPath10471" d="M170.241,181.3a.42.42,0,0,0-.389-.666c-2.374.722-3.832,1.013-5.664,1.513a138.45,138.45,0,0,1-16.506,1.374c-12.73-.278-18.588-2.318-22.351-3.332-.305-.083-.611.25-.472.472-.292,1.749,1.472,6.15,1.472,6.178,3.346,4.609,8.538,8.607,13.327,11.731,3.4,2.207,12.813,1.846,15.118,1.055,3.276-1.236,6.636-4.4,8.829-6.5a50.412,50.412,0,0,0,5.872-7.08,6.077,6.077,0,0,0,.791-2.055,3.99,3.99,0,0,0-.028-2.693ZM162.55,192.8a27.907,27.907,0,0,1-8.08,5.025,63.079,63.079,0,0,1-7.941.264,49.787,49.787,0,0,1-5.983-.666,38.4,38.4,0,0,1-7.3-4.9c-2.207-1.86-4.887-4.054-6.33-6.136a7.97,7.97,0,0,1-1.194-5.164c6.525,3.429,14.826,4.914,22.1,4.97a56.611,56.611,0,0,0,11.661-1.277c2.957-.6,7-1.236,9.718-2.888-.042.444-.028.916-.1,1.347C168.978,184.15,169.422,186.524,162.55,192.8Z" transform="translate(-124.825 -180.18)" fill="#da7c87"/>
              </g>
            </g>
            <g id="svga-group-eyes-left-move" transform="translate(27.514 86.267)">
              <g id="svga-group-eyes-left">
                <g id="svga-group-eyesback-left" transform="translate(1.341 8.691)">
                  <path id="SvgjsPath11335" d="M131.2,140.4a13.123,13.123,0,0,0-4.026-4.581,14.976,14.976,0,0,0-12.494-2.36,19.023,19.023,0,0,0-11.245,7.358,7.72,7.72,0,0,0,1.944,1.527c1.388.833,6.525,3.748,12.216,3.471s10.828-3.471,11.8-4.026a5.9,5.9,0,0,0,1.8-1.388Z" transform="translate(-103.432 -132.988)" fill="#fff"/>
                </g>
                <g id="svga-group-eyesiriswrapper-left" transform="translate(8.122 6.433)">
                  <g id="svga-group-eyesiriscontrol-left">
                    <g id="svga-group-eyesiris-left">
                      <path id="SvgjsPath10401" d="M114.641,132.217a7.624,7.624,0,1,1-2.221,10.551A7.642,7.642,0,0,1,114.641,132.217Z" transform="translate(-110.732 -130.599)" fill="#4e60a3"/>
                      <path id="SvgjsPath10402" d="M125.16,134.408a6.883,6.883,0,0,1,1.111,2.776,7.567,7.567,0,0,1,.139,3.054,7.479,7.479,0,0,1-1.111,2.915,8.45,8.45,0,0,1-2.221,2.221,8.033,8.033,0,0,1-2.915.972,7.567,7.567,0,0,1-3.054-.139,8.707,8.707,0,0,1-5-3.332,7.156,7.156,0,0,1-1.249-2.776,8.229,8.229,0,0,1,0-3.193,6.9,6.9,0,0,1,1.249-2.915,7.484,7.484,0,0,1,5.136-3.332,7.45,7.45,0,0,1,3.054.139,8.725,8.725,0,0,1,4.859,3.609Zm0,.139-.416-.555c-.139-.139-.278-.416-.555-.555-.139-.139-.416-.278-.555-.416s-.416-.278-.555-.416a6.8,6.8,0,0,0-2.638-.972,7.646,7.646,0,0,0-5.275,1.111,7.244,7.244,0,0,0-3.054,4.442,7.44,7.44,0,0,0,.833,5.414,5.566,5.566,0,0,0,1.944,2.082,6.319,6.319,0,0,0,2.638,1.111,6.9,6.9,0,0,0,2.915-.139,10.415,10.415,0,0,0,2.5-1.111,8.6,8.6,0,0,0,1.944-1.944,10.512,10.512,0,0,0,1.249-2.5,6.972,6.972,0,0,0,.278-2.915,22.655,22.655,0,0,0-1.249-2.638Z" transform="translate(-110.701 -130.568)" fill="#253984"/>
                      <path id="SvgjsPath10403" d="M119.166,136.321a2.636,2.636,0,0,1,2.638,2.638,2.638,2.638,0,1,1-5.275,0A2.636,2.636,0,0,1,119.166,136.321Z" transform="translate(-111.092 -130.955)"/>
                      <path id="SvgjsPath10404" d="M119.146,142a2.915,2.915,0,1,1,2.915-2.915A2.932,2.932,0,0,1,119.146,142Zm0-5.414a2.5,2.5,0,1,0,2.5,2.5A2.488,2.488,0,0,0,119.146,136.589Z" transform="translate(-111.072 -130.945)" fill="#152975"/>
                      <path id="SvgjsPath10405" d="M115.606,133.188c.555-.416,1.666.416,2.36,1.527.694,1.249.833,2.5.139,2.776-.555.416-1.666-.416-2.36-1.527C115.051,134.715,115.051,133.466,115.606,133.188Zm5.136,6.941a.972.972,0,1,1-.972.972A1.043,1.043,0,0,1,120.743,140.129Z" transform="translate(-111.004 -130.737)" fill="#fff"/>
                    </g>
                  </g>
                </g>
                <g id="svga-group-eyesfront-left">
                  <path id="SvgjsPath11343" d="M103.283,139.636c0,8.885,6.525,15.965,14.715,15.965s14.715-7.219,14.715-15.965S126.189,123.671,118,123.671,103.283,130.751,103.283,139.636Zm.139.694a20.167,20.167,0,0,1,11.245-7.358,15.1,15.1,0,0,1,12.494,2.36,11.96,11.96,0,0,1,4.026,4.581,16.353,16.353,0,0,1-1.8,1.527c-.972.555-6.108,3.748-11.8,4.026s-10.828-2.638-12.216-3.471a22.809,22.809,0,0,1-1.944-1.666Z" transform="translate(-102.081 -123.671)" fill="#f0c7b1"/>
                  <path id="SvgjsPath11344" d="M130.931,136.073c-6.108-5-13.466-5.969-20.823-3.609-.278.139-.416-.278-.139-.416,6.941-3.054,15.687-1.249,21.1,3.887C131.209,135.934,131.07,136.073,130.931,136.073Z" transform="translate(-102.52 -124.134)" fill="#e1ac8f"/>
                  <path id="SvgjsPath11345" d="M102.5,142.188c.278-.278.694-.555.972-.833,7.08,7.219,20.823,6.247,27.765-.555a.136.136,0,0,0,.139.139c.139.278.555,0,.416-.278,0-.139-.139-.139-.139-.278.139-.139,0-.416-.278-.416-2.915-5-8.746-7.5-14.438-7.219-5.414.278-12.772,3.887-14.854,9.162-.278.416.139.555.416.278Zm1.249-1.111c1.666-1.527,3.054-3.332,5.136-4.581a19.072,19.072,0,0,1,7.219-2.776,14.682,14.682,0,0,1,14.715,6.664c-3.887,2.915-8.191,5-13.188,5.136-5.414.139-9.3-1.8-13.882-4.442Z" transform="translate(-101.994 -124.28)"/>
                </g>
              </g>
            </g>
            <g id="svga-group-eyes-right-move" transform="translate(84.246 86.267)">
              <g id="svga-group-eyes-right">
                <g id="svga-group-eyesback-right" transform="translate(1.527 8.691)">
                  <path id="SvgjsPath11336" d="M164.449,140.4a13.123,13.123,0,0,1,4.026-4.581,14.976,14.976,0,0,1,12.494-2.36,19.023,19.023,0,0,1,11.245,7.358,7.72,7.72,0,0,1-1.944,1.527c-1.388.833-6.525,3.748-12.216,3.471s-10.828-3.471-11.8-4.026A5.9,5.9,0,0,1,164.449,140.4Z" transform="translate(-164.449 -132.988)" fill="#fff"/>
                </g>
                <g id="svga-group-eyesiriswrapper-right" transform="translate(6.642 6.433)">
                  <g id="svga-group-eyesiriscontrol-right">
                    <g id="svga-group-eyesiris-right">
                      <path id="SvgjsPath10406" d="M173.87,132.366a7.624,7.624,0,1,1-2.221,10.551A7.473,7.473,0,0,1,173.87,132.366Z" transform="translate(-169.961 -130.609)" fill="#4e60a3"/>
                      <path id="SvgjsPath10407" d="M184.391,134.408a6.884,6.884,0,0,1,1.111,2.776,7.567,7.567,0,0,1,.139,3.054,7.478,7.478,0,0,1-1.111,2.915,8.45,8.45,0,0,1-2.221,2.221,8.033,8.033,0,0,1-2.915.972,7.567,7.567,0,0,1-3.054-.139,8.707,8.707,0,0,1-5-3.332,7.156,7.156,0,0,1-1.249-2.776,8.23,8.23,0,0,1,0-3.193,6.9,6.9,0,0,1,1.249-2.915,7.484,7.484,0,0,1,5.136-3.332,7.45,7.45,0,0,1,3.054.139,9.232,9.232,0,0,1,4.859,3.609Zm-.139.139-.416-.555c-.139-.139-.278-.416-.555-.555-.139-.139-.416-.278-.555-.416s-.416-.278-.555-.416a6.8,6.8,0,0,0-2.638-.972,7.646,7.646,0,0,0-5.275,1.111,7.244,7.244,0,0,0-3.054,4.442,7.44,7.44,0,0,0,.833,5.414,5.566,5.566,0,0,0,1.944,2.082,6.319,6.319,0,0,0,2.638,1.111,6.9,6.9,0,0,0,2.915-.139,10.415,10.415,0,0,0,2.5-1.111,8.6,8.6,0,0,0,1.944-1.944,10.512,10.512,0,0,0,1.249-2.5,6.972,6.972,0,0,0,.278-2.915,22.653,22.653,0,0,0-1.249-2.638Z" transform="translate(-169.932 -130.568)" fill="#253984"/>
                      <path id="SvgjsPath10408" d="M178.248,136.321a2.636,2.636,0,0,1,2.638,2.638,2.638,2.638,0,1,1-2.638-2.638Z" transform="translate(-170.314 -130.955)"/>
                      <path id="SvgjsPath10409" d="M178.228,142a2.915,2.915,0,1,1,2.915-2.915A2.847,2.847,0,0,1,178.228,142Zm0-5.414a2.5,2.5,0,1,0,2.5,2.5A2.488,2.488,0,0,0,178.228,136.589Z" transform="translate(-170.294 -130.945)" fill="#152975"/>
                      <path id="SvgjsPath10410" d="M174.689,133.188c.555-.416,1.666.416,2.36,1.527.694,1.249.833,2.5.139,2.776s-1.666-.416-2.36-1.527C174.133,134.715,174.133,133.466,174.689,133.188Zm5.275,6.941a.972.972,0,1,1-.972.972A.949.949,0,0,1,179.964,140.129Z" transform="translate(-170.225 -130.737)" fill="#fff"/>
                    </g>
                  </g>
                </g>
                <g id="svga-group-eyesfront-right">
                  <path id="SvgjsPath11346" d="M177.527,123.671c-8.191,0-14.715,7.219-14.715,15.965s6.525,15.965,14.715,15.965,14.715-7.219,14.715-15.965-6.664-15.965-14.715-15.965Zm12.633,18.186c-1.388.833-6.525,3.748-12.216,3.471s-10.828-3.471-11.8-4.026a8.075,8.075,0,0,1-1.8-1.527,13.123,13.123,0,0,1,4.026-4.581,14.976,14.976,0,0,1,12.494-2.36,19.023,19.023,0,0,1,11.245,7.358A6.424,6.424,0,0,1,190.16,141.857Z" transform="translate(-162.812 -123.671)" fill="#f0c7b1"/>
                  <path id="SvgjsPath11349" d="M165.179,136.073c6.108-5,13.466-5.969,20.823-3.609.278.139.416-.278.139-.416-6.941-3.054-15.687-1.249-21.1,3.887C164.9,135.934,165.04,136.073,165.179,136.073Z" transform="translate(-162.958 -124.134)" fill="#e1ac8f"/>
                  <path id="SvgjsPath11350" d="M193.56,141.91c-2.082-5.275-9.44-8.885-14.854-9.162-5.692-.278-11.522,2.221-14.438,7.219-.139,0-.416.278-.278.416,0,.139-.139.139-.139.278-.139.278.278.555.416.278a.136.136,0,0,1,.139-.139c6.941,6.941,20.685,7.913,27.765.555a6.037,6.037,0,0,0,.972.833C193.282,142.466,193.7,142.327,193.56,141.91Zm-15.687,3.609c-5-.139-9.3-2.36-13.188-5.136A14.447,14.447,0,0,1,179.4,133.72a20,20,0,0,1,7.219,2.776c2.082,1.249,3.471,3.054,5.136,4.581C187.174,143.715,183.287,145.659,177.873,145.52Z" transform="translate(-162.88 -124.28)"/>
                </g>
              </g>
            </g>
            <g id="svga-group-eyebrows-left-move" transform="translate(21.105 77.646)">
              <g id="svga-group-eyebrows-left-rotate">
                <g id="svga-group-eyebrows-left">
                  <path id="SvgjsPath10248" d="M97.419,126.171a11.7,11.7,0,0,1,.833-1.944,9.917,9.917,0,0,1,1.111-2.082.855.855,0,0,1,.139-.972c.555-.833,1.111-1.527,1.666-2.5a14,14,0,0,1,1.249-2.5c.694-.972,2.5-.833,3.887-.555a5.975,5.975,0,0,1,2.221,0,5.435,5.435,0,0,1,1.8.416h.139a7.781,7.781,0,0,1,5,.416,20.506,20.506,0,0,1,2.915.139,24.33,24.33,0,0,1,4.581.555h2.36c.972-.139,1.944-.139,3.054-.278h.139c.416-.139.694-.278,1.111-.416.278-.139.416,0,.555.139.139,0,.278-.139.416-.139s.278,0,.278.139a12.218,12.218,0,0,1,2.082-.694h.139c.278-.278.694-.139.555.278a4.117,4.117,0,0,1-.972,2.082,7.277,7.277,0,0,1-1.388,1.527c.416,0,.972-.139,1.388-.139.139-.139.416-.278.555-.416a11.193,11.193,0,0,0,1.666-1.944c.139-.278.555.139.416.278a.721.721,0,0,0-.278.555v.139a.136.136,0,0,1-.139.139v.278a7.829,7.829,0,0,1-1.527,2.776.51.51,0,0,1,.139.416,8.166,8.166,0,0,1-3.748,3.748c-.278.139-.694.139-.833-.139a62.771,62.771,0,0,1-7.358.278c-1.8,0-4.165.139-5.831-.833a11.437,11.437,0,0,1-3.609-.555c-1.388.694-2.915.139-4.3-.278-.555-.139-.972-.416-1.527-.555a5.205,5.205,0,0,1-1.527.139h-.694a12.141,12.141,0,0,1-1.388,1.111,6.68,6.68,0,0,1-2.221,1.111H100.2a5.627,5.627,0,0,1-1.249.694,2.9,2.9,0,0,1-.555.833.51.51,0,0,1-.416.139,1.405,1.405,0,0,1-.972.555.443.443,0,0,1-.416-.416,2.116,2.116,0,0,1,.833-1.527Z" transform="translate(-95.221 -114.496)" fill="#2a232b"/>
                  <path id="SvgjsPath10249" d="M124.221,124.851a41.6,41.6,0,0,0,5.692-2.5,24.89,24.89,0,0,0,5.136-4.3c.139-.139.416,0,.278.278-2.221,3.332-6.663,6.664-10.828,6.941-.416.139-.555-.278-.278-.416Zm.555.833a21.451,21.451,0,0,0,7.219-2.638c.139-.139.278.139.139.278a12.077,12.077,0,0,1-7.358,2.776c-.139-.139-.139-.416,0-.416Zm-3.887-1.8c1.527-.972,3.054-1.8,4.581-2.915a33.258,33.258,0,0,0,3.887-3.748c.139-.139.278,0,.278.139a14.34,14.34,0,0,1-8.607,6.664c-.278.139-.278-.139-.139-.139Zm-7.774.972c3.609-1.944,6.941-3.471,9.024-7.219.139-.139.278,0,.278.139a14,14,0,0,1-9.162,7.358c-.278,0-.416-.278-.139-.278Zm-4.859-1.527a30.313,30.313,0,0,0,3.054-2.915c.972-1.249,1.527-2.638,2.36-3.887.139-.139.416-.139.278.139-.278,2.638-3.054,6.247-5.553,7.08-.139.139-.278-.139-.139-.416Zm-3.609-.139c2.221-2.082,4.165-3.887,5.414-6.664.139-.139.416,0,.278.139-.972,2.776-2.638,5.692-5.414,6.941-.139,0-.416-.278-.278-.416Zm-7.774,2.5a20.98,20.98,0,0,1,4.026-1.8c1.111-.416,2.221-.972,3.471-.555.139,0,.139.278,0,.278-1.249-.139-2.5.555-3.748,1.111a15.857,15.857,0,0,1-3.609,1.249C96.734,126.1,96.595,125.823,96.873,125.684Z" transform="translate(-95.23 -114.564)" fill="#3a353a"/>
                  <path id="SvgjsPath10250" d="M95.238,128.465c-.278.278,0,.555.278.555h.139a.422.422,0,0,0,.555,0,.136.136,0,0,1,.139-.139,20.708,20.708,0,0,0,4.165-2.5,20.161,20.161,0,0,0,3.609-2.36c4.026,1.111,8.607,1.249,12.772,1.666a93.354,93.354,0,0,0,12.494.278.51.51,0,0,0,.416.139.136.136,0,0,0,.139-.139h.416c.278,0,.278-.278.278-.416a11.823,11.823,0,0,0,5.136-8.746c0-.139,0-.139-.139-.139a.266.266,0,0,0-.416-.139l-1.666,1.666-.139.139a5.282,5.282,0,0,0,.694-2.082c0-.416-.416-.416-.555-.139a6.68,6.68,0,0,1-1.111,2.221c-.416.555-1.249,1.111-1.527,1.666-.139.139,0,.278.139.278a1.5,1.5,0,0,0,.972-.416h.139a6.409,6.409,0,0,0,2.082-1.249,7.934,7.934,0,0,0,.972-1.111,12,12,0,0,1-5.414,7.5c-2.221-.139-4.3-.139-6.525-.278a19.855,19.855,0,0,0,3.748-2.638,15.525,15.525,0,0,0,4.165-5.692,8.375,8.375,0,0,0,2.638-.833c.139-.139.139-.278-.139-.278a40.055,40.055,0,0,0-4.026.555,33.831,33.831,0,0,1-3.748.139,67.828,67.828,0,0,1-7.5-.416c-5-.416-10.551-1.527-15.548-.972-.278,0-.416.278-.416.555a36.667,36.667,0,0,0-3.748,6.386,35.733,35.733,0,0,0-2.776,6.247l-.694.694Zm2.082-1.527c.833-1.666,1.388-3.332,2.221-5,1.111-2.082,2.221-4.026,3.193-6.247,2.776.139,5.553,0,8.191.278s5.275.555,7.913.694a50.285,50.285,0,0,0,7.913.278,36.726,36.726,0,0,0,3.748-.278,19.158,19.158,0,0,1-4.442,5A22.827,22.827,0,0,1,123,123.606a12.307,12.307,0,0,0-2.36,1.111h-1.249a10.521,10.521,0,0,0,5-5.692c.139-.278-.278-.416-.416-.278-.833.972-1.527,2.221-2.5,3.193a29.288,29.288,0,0,1-3.193,2.638h-.972c-2.082-.139-4.3-.416-6.386-.555a8.06,8.06,0,0,0,2.5-4.3c0-.139-.278-.278-.278-.139a13.183,13.183,0,0,1-1.388,2.36,10.287,10.287,0,0,1-1.666,1.8c-1.527-.278-3.054-.555-4.581-.694.139-.139,0-.555-.278-.416a6.769,6.769,0,0,1-.972.416.136.136,0,0,0-.139.139c-1.388.694-2.638,1.527-3.887,2.221-1.111.555-1.944.972-2.915,1.527Z" transform="translate(-95.123 -114.43)" fill="#1b141c"/>
                </g>
              </g>
            </g>
            <g id="svga-group-eyebrows-right-move" transform="translate(80.775 77.855)">
              <g id="svga-group-eyebrows-right-rotate">
                <g id="svga-group-eyebrows-right">
                  <path id="SvgjsPath10251" d="M197.434,126.171a11.7,11.7,0,0,0-.833-1.944,9.915,9.915,0,0,0-1.111-2.082.855.855,0,0,0-.139-.972,15.653,15.653,0,0,1-1.666-2.5,14,14,0,0,0-1.249-2.5c-.694-.972-2.5-.833-3.887-.555a5.975,5.975,0,0,0-2.221,0,5.435,5.435,0,0,0-1.8.416h-.139a7.781,7.781,0,0,0-5,.416,20.506,20.506,0,0,0-2.915.139,24.33,24.33,0,0,0-4.581.555h-2.36c-.972-.139-1.944-.139-3.054-.278h-.139c-.416-.139-.694-.278-1.111-.416-.278-.139-.416,0-.555.139-.139,0-.278-.139-.416-.139s-.278,0-.278.139a12.218,12.218,0,0,0-2.082-.694h-.139c-.278-.278-.694-.139-.555.278a4.117,4.117,0,0,0,.972,2.082,7.277,7.277,0,0,0,1.388,1.527c-.416,0-.972-.139-1.388-.139-.139-.139-.416-.278-.555-.416a11.194,11.194,0,0,1-1.666-1.944c-.139-.278-.555.139-.416.278a.721.721,0,0,1,.278.555v.139a.136.136,0,0,0,.139.139v.278a7.829,7.829,0,0,0,1.527,2.776.51.51,0,0,0-.139.416,8.166,8.166,0,0,0,3.748,3.748c.278.139.694.139.833-.139,2.5.139,5.136.139,7.774.139,1.8,0,4.165.139,5.831-.833a11.437,11.437,0,0,0,3.609-.555c1.388.694,2.915.139,4.3-.278.555-.139.972-.416,1.527-.555a5.694,5.694,0,0,0,1.527.139h.694a12.137,12.137,0,0,0,1.388,1.111,6.68,6.68,0,0,0,2.221,1.111h.278a5.628,5.628,0,0,0,1.249.694,2.9,2.9,0,0,0,.555.833.51.51,0,0,0,.416.139,1.405,1.405,0,0,0,.972.555.443.443,0,0,0,.416-.416,12.523,12.523,0,0,0-1.249-1.388Z" transform="translate(-159.119 -114.705)" fill="#2a232b"/>
                  <path id="SvgjsPath10252" d="M170.641,124.851a41.6,41.6,0,0,1-5.692-2.5,24.89,24.89,0,0,1-5.136-4.3c-.139-.139-.416,0-.278.278,2.221,3.332,6.664,6.664,10.828,6.941.416.139.555-.278.278-.416Zm-.555.833a21.451,21.451,0,0,1-7.219-2.638c-.139-.139-.278.139-.139.278a12.077,12.077,0,0,0,7.358,2.776c.139-.139.139-.416,0-.416Zm3.887-1.8c-1.527-.972-3.054-1.8-4.581-2.915a33.26,33.26,0,0,1-3.887-3.748c-.139-.139-.278,0-.278.139a14.34,14.34,0,0,0,8.607,6.664c.278.139.278-.139.139-.139Zm7.774.972c-3.609-1.944-6.941-3.471-9.023-7.219-.139-.139-.278,0-.278.139a14,14,0,0,0,9.162,7.358c.278,0,.416-.278.139-.278Zm4.859-1.527a30.312,30.312,0,0,1-3.054-2.915c-.972-1.249-1.527-2.638-2.36-3.887-.139-.139-.416-.139-.278.139.278,2.638,3.054,6.247,5.553,7.08.139.139.278-.139.139-.416Zm3.609-.139c-2.221-2.082-4.165-3.887-5.414-6.664-.139-.139-.416,0-.278.139.972,2.776,2.638,5.692,5.414,6.941.139,0,.416-.278.278-.416Zm7.774,2.5a20.979,20.979,0,0,0-4.026-1.8c-1.111-.416-2.221-.972-3.471-.555-.139,0-.139.278,0,.278,1.249-.139,2.5.555,3.748,1.111a15.857,15.857,0,0,0,3.609,1.249c.278.139.416-.139.139-.278Z" transform="translate(-159.118 -114.773)" fill="#3a353a"/>
                  <path id="SvgjsPath10253" d="M198.933,128.063a31.666,31.666,0,0,0-2.776-6.247,36.666,36.666,0,0,0-3.748-6.386c0-.278-.139-.555-.416-.555-5.136-.694-10.551.416-15.548.972a67.832,67.832,0,0,1-7.5.416c-1.249,0-2.5-.139-3.748-.139a40.057,40.057,0,0,0-4.026-.555c-.139,0-.278.278-.139.278a8.375,8.375,0,0,0,2.638.833,15.525,15.525,0,0,0,4.165,5.692,19.854,19.854,0,0,0,3.748,2.638c-2.221.139-4.3.139-6.525.278a11.865,11.865,0,0,1-5.414-7.5c.278.416.694.694.972,1.111a4.025,4.025,0,0,0,2.082,1.249h.139a1.26,1.26,0,0,0,.972.416c.139,0,.278-.139.139-.278-.278-.694-1.111-1.111-1.527-1.666a8.312,8.312,0,0,1-1.111-2.221c-.139-.278-.555-.278-.555.139a4.131,4.131,0,0,0,.694,2.082l-.139-.139-1.666-1.666a.266.266,0,0,0-.416.139l-.139.139a11.582,11.582,0,0,0,5.136,8.746c0,.139,0,.416.278.416h.416a.136.136,0,0,1,.139.139c.139.139.278,0,.416-.139a93.881,93.881,0,0,0,12.494-.278c4.165-.278,8.746-.416,12.772-1.666,1.111.833,2.5,1.527,3.609,2.36a30.051,30.051,0,0,0,4.165,2.5.136.136,0,0,0,.139.139.289.289,0,0,0,.555,0h.139c.278.139.555-.278.278-.555a1.638,1.638,0,0,0-.694-.694Zm-4.165-2.638a21.612,21.612,0,0,0-3.887-2.221.136.136,0,0,1-.139-.139l-.833-.416c-.278-.139-.416.278-.278.416-1.527.139-3.054.416-4.581.694a21.35,21.35,0,0,1-1.666-1.8,20.9,20.9,0,0,1-1.388-2.36c-.139-.139-.278,0-.278.139a8.059,8.059,0,0,0,2.5,4.3c-2.082.278-4.3.416-6.386.555h-.972a20.185,20.185,0,0,1-3.193-2.638,28.155,28.155,0,0,1-2.5-3.193c-.139-.278-.555,0-.416.278a10.521,10.521,0,0,0,5,5.692H174.5a7.365,7.365,0,0,0-2.36-1.111,22.826,22.826,0,0,1-3.054-1.944,19.157,19.157,0,0,1-4.442-5,34.039,34.039,0,0,0,3.748.278,50.286,50.286,0,0,0,7.913-.278c2.638-.278,5.275-.555,7.913-.694,2.776-.278,5.553-.139,8.191-.278a52.916,52.916,0,0,0,3.193,6.247c.833,1.527,1.388,3.332,2.221,5a15.513,15.513,0,0,1-3.054-1.527Z" transform="translate(-159.091 -114.654)" fill="#1b141c"/>
                </g>
              </g>
            </g>
            <g id="svga-group-nose-single-move" transform="translate(57.528 100.682)">
              <g id="svga-group-nose-single">
                <path id="SvgjsPath10656" d="M155.56,157.724c.361,1.138,5.178,6.316,5.261,9.121s-2.888,5.608-6.58,3.068c0,0-3.415,2.624-6.58,2.277a7.758,7.758,0,0,1-4.914-2.54,9.313,9.313,0,0,1-5.525.264c-2.54-.875-3.151-3.943-1.319-6.747s5-7.621,5.692-10.342C142.316,150.1,151.437,145.022,155.56,157.724Z" transform="translate(-134.215 -138.433)" fill="#f0c7b1"/>
                <path id="SvgjsPath10657" d="M155.459,156.317c-.222-.278-.694.083-.5.389,1.291,1.985,2.707,3.929,3.9,5.983.819,1.388,1.638,3.124,1.069,4.8-.93,2.749-3.36,2.6-5.317,1.541a4.674,4.674,0,0,0,1.069-3.276c-.028-.305-.444-.569-.666-.278-1.944,2.443-3.179,5-6.788,5.136-3.818.153-6.275-2.943-7.288-6.261a.255.255,0,0,0-.5.069,6.88,6.88,0,0,0,1.208,4.248,13.738,13.738,0,0,1-1.666.236c-1.777.111-2.068-.028-3.235-1.513-1.236-1.555-1.236-1.944-.555-3.679a14.2,14.2,0,0,1,1.263-2.235,39.3,39.3,0,0,0,3.818-7.3,31.24,31.24,0,0,0,1.888-16.395c-.042-.236-.4-.167-.4.056a44.874,44.874,0,0,1-1.6,13.1c-1.347,4.428-3.9,7.76-6.025,11.744-1.111,2.068-1.569,4.8.319,6.58s4.762,1.208,6.955.375a7.963,7.963,0,0,0,5.012,2.568,9.1,9.1,0,0,0,6.705-2.61c2.013,2.235,5.872,1.194,6.886-1.652,1.513-4.331-3.193-8.663-5.553-11.633Z" transform="translate(-134.17 -137.637)" fill="#c27b55"/>
                <path id="SvgjsPath10658" d="M151.667,161.812a3.586,3.586,0,0,0-4.581-.416,2.51,2.51,0,0,0-.93,1.388,1.792,1.792,0,0,0-.666.416c-1.055,1.027-.611,2.638.292,3.6a4.093,4.093,0,0,0,3.11,1.152,4.155,4.155,0,0,0,3.318-1.846,3.436,3.436,0,0,0-.541-4.29Z" transform="translate(-134.89 -139.19)" fill="#f8d5c3"/>
              </g>
            </g>
            <g id="svga-group-hair-front" transform="translate(6.902)">
              <path id="SvgjsPath11578" d="M90.579,138.063s1.249-29.569,2.082-35.261c.694-5.831,3.471-21.656,8.885-25.96s9.856-8.329,23.461-5.553,15.826,5.553,25.682,3.332a148.549,148.549,0,0,0,15.687-4.3s7.774,1.527,12.911,2.776c5,1.249,9.024,6.247,12.633,15.132,3.471,8.885,7.774,26.238,6.8,38.593s1.249,10.551,1.249,10.551l4.581-10.134s4.3-8.052,2.221-14.576a58.741,58.741,0,0,0,.833-8.885c-.139-3.054-2.5-7.358-2.5-7.358s.972-9.579,0-12.911a18.53,18.53,0,0,0-1.8-4.581s.833-5.831-1.8-10.134A40.766,40.766,0,0,0,194,60.46S187.478,43.8,181.647,41.025s-8.329-7.08-15.687-8.329-16.1.694-16.1.694-3.471-2.776-11.383-.278c0,0-5.553-2.221-14.438,1.249s-12.078,8.885-12.078,8.885S103.073,46.3,100.575,50.6c0,0-11.383,5.553-14.438,15.132S84.888,80.59,84.888,80.59s-3.471,8.052-.972,15.965c0,0-4.3,4.581-1.249,15.687,0,0-2.5,5.275.694,13.049C86.553,133.2,86.276,137.785,90.579,138.063Z" transform="translate(-80.01 -31.25)" fill="#6b4e40"/>
              <path id="SvgjsPath11579" d="M205.829,95.524a31.362,31.362,0,0,0-1.8-16.936.3.3,0,0,0-.278-.278,18.906,18.906,0,0,0-.278-5.553c-1.111-5.692-5-9.3-9.3-12.911a.136.136,0,0,1-.139-.139,42.939,42.939,0,0,0-9.162-16.52c-8.746-9.856-24.294-16.242-36.372-8.329-.278.278-.139.833.278.694C162.516,30,176.4,35.274,185.144,46.936c7.219,9.579,8.607,20.268,7.774,31.929-.139.833,1.249.972,1.527.278a32.8,32.8,0,0,0,.139-16.8c2.082,2.36,4.581,4.442,5.969,7.219,3.748,7.5.139,15.965-4.3,22.212-.555.694.694,1.388,1.111.694a33,33,0,0,0,5.831-11.939c.833,4.72,1.388,9.162.555,14.021-.833,4.72-3.054,8.746-5,13.188a.6.6,0,0,0,.972.694,23.831,23.831,0,0,0,5.275-10,23.914,23.914,0,0,1,.555,8.329c-.278,3.054-1.666,5.692-2.082,8.607,0,.416.555.694.833.416a8.088,8.088,0,0,0,1.527-2.082,36.761,36.761,0,0,1-2.638,13.327c-.694,1.8-2.36,6.664-4.165,9.162.972-14.438-.416-30.541-4.859-44.146-2.36-7.219-6.525-15.132-13.188-18.741a17.009,17.009,0,0,0,2.638-.278.723.723,0,0,0,0-1.388c-8.191-1.527-16.1-2.5-23.322-7.219-9.44-6.247-15.826-17.769-12.911-29.153A.573.573,0,0,0,146.274,35c-5.414,13.6,4.581,27.765,17.492,34.428-2.915.972-5.969,1.8-8.885,2.5-11.8,0-24.433-3.609-27.9-16.52-3.887-14.16,8.885-24.988,22.351-22.073.555.139.833-.694.278-.833a16.936,16.936,0,0,0-11.939-.416c-8.885-1.111-18.186,1.388-24.433,7.913h-.278c-5,2.915-10,5.831-13.6,10C88.8,54.571,79.5,69.008,83.109,80.253A32.487,32.487,0,0,0,82,95.385c-2.082,4.165-2.915,11.245-1.111,16.381-1.944,6.108.694,12.911,3.054,18.6,1.666,3.887,1.388,7.219,5.553,8.885.278.139.555.139.694-.139A1.323,1.323,0,0,0,91.3,138c.139-15.826,1.111-31.652,5-46.922,1.666-6.664,3.887-14.3,10.273-17.769,7.219-4.026,16.659-1.666,24.155.278h.139c11.106,4.859,25.266,3.193,35.539-2.915a36.78,36.78,0,0,0,10.551,2.638c10.967,4.026,15.132,17.908,16.936,28.6a146.631,146.631,0,0,1,2.5,36.51c-.139,1.111,1.249,1.249,1.8.694,3.609-1.8,3.471-5,5-8.746,2.5-5.692,4.859-12.633,3.054-18.6,2.5-5,1.666-12.078-.416-16.242Zm-108.56-14.3c-7.358,16.8-7.774,37.482-7.913,55.529-1.944-2.221-3.748-7.635-4.581-9.718a34.066,34.066,0,0,1-2.638-13.327,8.088,8.088,0,0,0,1.527,2.082c.278.278.972.139.833-.416-.416-2.915-1.8-5.692-2.082-8.607a23.947,23.947,0,0,1,.694-8.329,23.126,23.126,0,0,0,5.275,10,.6.6,0,0,0,.972-.694c-1.944-4.442-4.165-8.329-5-13.188A38.269,38.269,0,0,1,84.5,82.613a17.869,17.869,0,0,0,4.165,5.136c.555.416,1.527-.139,1.111-.833C80.888,74.423,86.58,60.54,97.963,52.627a17.784,17.784,0,0,0-1.944,4.72c-1.527,5.831.972,13.188,6.941,15.409.555.278.972-.555.555-.972-5.969-6.108-8.052-13.327-2.221-20.823.278-.278.416-.555.694-.694.139,0,.139-.139.278-.139.139-.139.278-.278.278-.416,2.36-2.36,5.414-3.887,8.191-5.831-4.859,8.052-3.887,18.6,4.026,24.155.416.278.972-.416.555-.694-6.941-6.941-7.774-16.8-1.666-24.572a22.441,22.441,0,0,1,7.219-5.969c-7.5,7.219-6.664,21.24-.278,29.014a24.292,24.292,0,0,0,5.136,4.859c-11.106-3.054-23.183-1.388-28.459,10.551Zm29.153-13.188c-11.245-8.468-12.078-25.127-.416-33.318a43.223,43.223,0,0,1,9.44-1.527A20.31,20.31,0,0,0,124.2,53.044c1.249,11.383,10.551,18.741,20.962,20.685A27.664,27.664,0,0,1,126.422,68.037Z" transform="translate(-79.897 -31.191)" fill="#5c3d2e"/>
              <path id="SvgjsPath11580" d="M183.124,67.38a25.624,25.624,0,0,1-19.3-8.885c-4.72-5.136-12.216-14.438-9.023-21.934.278-.555-.416-.972-.694-.416-3.887,7.219,2.082,15.271,6.525,20.823,5.553,6.941,13.327,12.216,22.489,11.245a.416.416,0,0,0,0-.833Zm-31.79-3.332c-6.8-6.664-14.16-14.715-9.718-25.127.278-.555-.416-.972-.694-.416-5.275,10.134,1.8,20.268,10,26.1C151.2,64.881,151.612,64.326,151.334,64.048Zm-.555,2.915c-8.746-5.831-17.214-12.772-17.075-24.155a.349.349,0,0,0-.694,0c-.555,11.383,7.635,20.268,17.492,24.711.278,0,.555-.278.278-.555Zm2.776,1.111c-8.052-.416-14.993-3.193-20.268-9.44-.278-.278-.833.139-.555.555,5,6.108,12.772,10.134,20.685,9.718C153.972,68.768,153.972,68.213,153.555,68.074ZM129.4,65.159c-7.219-7.219-10.828-17.353-3.054-25.821.416-.555-.278-1.249-.694-.694-8.607,7.774-5.969,21.379,3.054,27.765C129.261,66.686,129.955,65.714,129.4,65.159Zm-11.939-1.666c-4.165-5.553-5.414-12.355-2.5-18.741.278-.416-.416-.833-.694-.416-3.332,6.386-2.638,14.438,2.638,19.574.278.278.694,0,.555-.416ZM105.383,51.971c.139-.416-.416-.555-.555-.139-.972,3.609-1.111,7.774.555,11.106.139.416.833.139.694-.278C105.106,59.051,104.55,55.719,105.383,51.971Zm0,14.16a18.088,18.088,0,0,1-2.915-4.3c-.139-.278-.555,0-.416.139a10.159,10.159,0,0,0,3.193,4.442C105.245,66.547,105.522,66.27,105.383,66.131ZM94.139,75.987a19.856,19.856,0,0,1-1.666-16.1c.139-.555-.694-.833-.833-.278-1.8,5.275-2.638,12.633,1.8,16.936C93.722,77.1,94.416,76.542,94.139,75.987Zm-2.776,5c-2.082-3.471-3.332-6.664-3.054-10.689,0-.278-.416-.278-.555,0-.416,3.887.278,8.191,3.054,11.106C91.223,81.679,91.64,81.4,91.362,80.985Zm-3.054,20.962c-1.666-4.581-2.776-8.885-2.36-14.021,0-.278-.416-.416-.555,0-.694,4.859-.416,10.134,2.082,14.438.278.278.972,0,.833-.416Zm-5,3.748c-.139-.278-.416,0-.416.139a24.822,24.822,0,0,0,1.8,4.442c.139.278.555.139.416-.139A17.575,17.575,0,0,0,83.311,105.7ZM199.644,74.6c-.278-2.082-.416-6.247-3.054-6.386a.356.356,0,0,0-.139.694c2.221,1.111,2.082,7.219,2.082,9.162a27.015,27.015,0,0,1-1.8,8.191c-.139.416.555.694.833.278A21.865,21.865,0,0,0,199.644,74.6Zm3.193,13.466c-.139-.555-.833-.278-.833.278.833,4.3-.416,8.052-2.638,11.661-.278.416.278.833.694.555A13.655,13.655,0,0,0,202.837,88.065Zm1.666,16.242a.349.349,0,0,0-.694,0,20.968,20.968,0,0,1-.694,7.219c0,.278.278.416.416.139a13.26,13.26,0,0,0,.972-7.358ZM172.99,39.338c-.416-.139-.555.416-.139.555,10,4.165,15.826,18.741,18.88,28.181.139.416.694.278.555-.139-2.36-10-9.023-24.711-19.3-28.6Z" transform="translate(-80.098 -31.506)" fill="#7a6155"/>
            </g>
          </g>
        </g>
      </g>
    </g>
  </g>
</svg>
